<mxfile host="app.diagrams.net" modified="2023-06-13T23:56:32.564Z" agent="Mozilla/5.0 (Windows NT 10.0; Win64; x64) AppleWebKit/537.36 (KHTML, like Gecko) Chrome/114.0.0.0 Safari/537.36" etag="wO7S3iUN8WYXH5_Qu3mA" version="21.3.8" type="github">
  <diagram name="Page-1" id="rXNbQzekzQlWDWHnpysG">
    <mxGraphModel dx="1649" dy="691" grid="1" gridSize="10" guides="1" tooltips="1" connect="1" arrows="1" fold="1" page="1" pageScale="1" pageWidth="827" pageHeight="1169" math="0" shadow="0">
      <root>
        <mxCell id="0" />
        <mxCell id="1" parent="0" />
        <mxCell id="SL8fdfDS1B5DDEObin5c-1" value="算法开发" style="rounded=0;whiteSpace=wrap;html=1;fillColor=#ffe6cc;strokeColor=#d79b00;" vertex="1" parent="1">
          <mxGeometry x="170" y="10" width="120" height="60" as="geometry" />
        </mxCell>
        <mxCell id="SL8fdfDS1B5DDEObin5c-2" value="算法评测" style="rounded=0;whiteSpace=wrap;html=1;fillColor=#ffe6cc;strokeColor=#d79b00;" vertex="1" parent="1">
          <mxGeometry x="300" y="10" width="120" height="60" as="geometry" />
        </mxCell>
        <mxCell id="SL8fdfDS1B5DDEObin5c-3" value="云边协同" style="rounded=0;whiteSpace=wrap;html=1;fillColor=#ffe6cc;strokeColor=#d79b00;" vertex="1" parent="1">
          <mxGeometry x="440" y="10" width="120" height="60" as="geometry" />
        </mxCell>
        <mxCell id="SL8fdfDS1B5DDEObin5c-4" value="&lt;font style=&quot;font-size: 20px;&quot;&gt;可视化分析控制台&lt;/font&gt;" style="rounded=0;whiteSpace=wrap;html=1;fillColor=#6a00ff;strokeColor=#3700CC;fontColor=#ffffff;" vertex="1" parent="1">
          <mxGeometry x="100" y="130" width="120" height="60" as="geometry" />
        </mxCell>
        <mxCell id="SL8fdfDS1B5DDEObin5c-5" value="&lt;span style=&quot;font-size: 20px;&quot;&gt;专业模型组件库&lt;/span&gt;" style="rounded=0;whiteSpace=wrap;html=1;fillColor=#6a00ff;strokeColor=#3700CC;fontColor=#ffffff;" vertex="1" parent="1">
          <mxGeometry x="100" y="210" width="120" height="60" as="geometry" />
        </mxCell>
        <mxCell id="SL8fdfDS1B5DDEObin5c-6" value="&lt;span style=&quot;font-size: 20px;&quot;&gt;基础模型组件库&lt;/span&gt;" style="rounded=0;whiteSpace=wrap;html=1;fillColor=#6a00ff;strokeColor=#3700CC;fontColor=#ffffff;" vertex="1" parent="1">
          <mxGeometry x="100" y="290" width="120" height="60" as="geometry" />
        </mxCell>
        <mxCell id="SL8fdfDS1B5DDEObin5c-7" value="&lt;span style=&quot;font-size: 20px;&quot;&gt;框架算法&lt;/span&gt;" style="rounded=0;whiteSpace=wrap;html=1;fillColor=#6a00ff;strokeColor=#3700CC;fontColor=#ffffff;" vertex="1" parent="1">
          <mxGeometry x="100" y="370" width="120" height="60" as="geometry" />
        </mxCell>
        <mxCell id="SL8fdfDS1B5DDEObin5c-8" value="&lt;span style=&quot;font-size: 20px;&quot;&gt;框架算法&lt;/span&gt;" style="rounded=0;whiteSpace=wrap;html=1;fillColor=#6a00ff;strokeColor=#3700CC;fontColor=#ffffff;" vertex="1" parent="1">
          <mxGeometry x="100" y="450" width="120" height="60" as="geometry" />
        </mxCell>
      </root>
    </mxGraphModel>
  </diagram>
</mxfile>
